<svg width="130" height="130" viewBox="0 0 130 130" fill="none" xmlns="http://www.w3.org/2000/svg">
<g clip-path="url(#clip0_3_88616)">
<path d="M91.52 0H37.91L0 37.86V91.41L37.91 129.26H91.52L129.43 91.41V37.86L91.52 0ZM64.72 109.84C55.7779 109.84 47.0366 107.188 39.6016 102.22C32.1667 97.2519 26.372 90.1904 22.9505 81.9288C19.5289 73.6672 18.6342 64.5764 20.3794 55.8063C22.1247 47.0361 26.4315 38.9805 32.7552 32.6582C39.079 26.3358 47.1356 22.0308 55.9061 20.2875C64.6766 18.5442 73.7672 19.4409 82.028 22.8643C90.2889 26.2876 97.3491 32.0839 102.316 39.5199C107.282 46.956 109.932 55.6979 109.93 64.64C109.93 70.5766 108.761 76.455 106.488 81.9396C104.216 87.4242 100.886 92.4074 96.6877 96.6048C92.4894 100.802 87.5054 104.131 82.0204 106.402C76.5353 108.673 70.6566 109.841 64.72 109.84Z" fill="#091919"/>
<path d="M58.5201 63.35L58.5101 67.22H38.8701L38.8801 63.35H58.5201Z" fill="#091919"/>
<path d="M90.8802 63.35L90.8702 67.22H71.2402L71.2502 63.35H90.8802Z" fill="#091919"/>
</g>
<defs>
<clipPath id="clip0_3_88616">
<rect width="129.43" height="129.26" fill="white"/>
</clipPath>
</defs>
</svg>
