<svg width="146" height="130" viewBox="0 0 146 130" fill="none" xmlns="http://www.w3.org/2000/svg">
<g clip-path="url(#clip0_3_88629)">
<path d="M107.7 42.36C105.852 39.2383 104.869 35.681 104.852 32.0536C104.834 28.4261 105.783 24.8595 107.6 21.72L107.69 21.58L107.75 21.49L109.86 18.31L91.52 0H37.91L0 37.86V91.4L37.91 129.26H91.52L129.43 91.4V53.52C125.111 54.0152 120.741 53.2194 116.874 51.2331C113.006 49.2469 109.814 46.1592 107.7 42.36ZM64.7 109.84C55.7575 109.842 47.0152 107.192 39.5789 102.225C32.1426 97.2579 26.3464 90.1972 22.9233 81.9357C19.5002 73.6743 18.6041 64.5832 20.3482 55.8124C22.0923 47.0416 26.3984 38.985 32.7217 32.6617C39.045 26.3384 47.1016 22.0323 55.8724 20.2882C64.6432 18.5441 73.7343 19.4402 81.9957 22.8633C90.2572 26.2864 97.3179 32.0826 102.285 39.5189C107.252 46.9552 109.902 55.6975 109.9 64.64C109.897 76.6235 105.137 88.1157 96.6654 96.5912C88.1936 105.067 76.7035 109.832 64.72 109.84H64.7Z" fill="#091919"/>
<path d="M38.8701 68.91L44.6001 74.68L52.7301 74.7L58.5001 68.97L58.5101 63.35H38.8801L38.8701 68.91Z" fill="#091919"/>
<path d="M71.23 68.67L76.97 74.44L85.1 74.46L90.86 68.73L90.88 63.35H71.25L71.23 68.67Z" fill="#091919"/>
<path d="M143.2 23.79L127.62 0.260034C127.566 0.179214 127.494 0.113075 127.408 0.0676576C127.322 0.0222398 127.227 -0.00100928 127.13 3.35998e-05C127.033 0.00155952 126.939 0.0259191 126.854 0.0711143C126.768 0.11631 126.695 0.181053 126.64 0.260034L112.74 21.2L111.06 23.73C109.599 26.2541 108.838 29.1223 108.856 32.0386C108.873 34.9549 109.669 37.8137 111.16 40.32C112.774 43.1409 115.103 45.4872 117.911 47.1232C120.72 48.7591 123.91 49.6272 127.16 49.64C127.929 49.6372 128.698 49.5838 129.46 49.48C132.298 49.1137 135.012 48.0939 137.389 46.501C139.767 44.9081 141.742 42.7855 143.16 40.3C144.638 37.8016 145.421 34.9534 145.428 32.0505C145.435 29.1476 144.666 26.2956 143.2 23.79Z" fill="#091919"/>
</g>
<defs>
<clipPath id="clip0_3_88629">
<rect width="145.42" height="129.26" fill="white"/>
</clipPath>
</defs>
</svg>
